<?xml version="1.0" encoding="UTF-8" standalone="no"?>
<svg
   xmlns:dc="http://purl.org/dc/elements/1.1/"
   xmlns:cc="http://creativecommons.org/ns#"
   xmlns:rdf="http://www.w3.org/1999/02/22-rdf-syntax-ns#"
   xmlns:svg="http://www.w3.org/2000/svg"
   xmlns="http://www.w3.org/2000/svg"
   xmlns:sodipodi="http://sodipodi.sourceforge.net/DTD/sodipodi-0.dtd"
   xmlns:inkscape="http://www.inkscape.org/namespaces/inkscape"
   width="16px"
   height="16px"
   viewBox="0 0 16 16"
   version="1.1"
   id="svg11"
   sodipodi:docname="grafana_mask_icon_white.svg"
   inkscape:version="0.92.1 r15371">
  <metadata
     id="metadata15">
    <rdf:RDF>
      <cc:Work
         rdf:about="">
        <dc:format>image/svg+xml</dc:format>
        <dc:type
           rdf:resource="http://purl.org/dc/dcmitype/StillImage" />
      </cc:Work>
    </rdf:RDF>
  </metadata>
  <sodipodi:namedview
     pagecolor="#ffffff"
     bordercolor="#666666"
     borderopacity="1"
     objecttolerance="10"
     gridtolerance="10"
     guidetolerance="10"
     inkscape:pageopacity="0"
     inkscape:pageshadow="2"
     inkscape:window-width="1036"
     inkscape:window-height="697"
     id="namedview13"
     showgrid="false"
     inkscape:zoom="14.75"
     inkscape:cx="8"
     inkscape:cy="8"
     inkscape:window-x="1991"
     inkscape:window-y="103"
     inkscape:window-maximized="0"
     inkscape:current-layer="svg11" />
  <!-- Generator: Sketch 46 (44423) - http://www.bohemiancoding.com/sketch -->
  <title
     id="title2">grafana_mask_icon</title>
  <desc
     id="desc4">Created with Sketch.</desc>
  <defs
     id="defs6" />
  <g
     id="g4510">
    <path
       inkscape:connector-curvature="0"
       style="fill:#ffffff;stroke-width:0.82251;fill-opacity:1"
       id="path7"
       d="m 9.8524028,15.597077 3.9845492,-4.139208 c 0.118569,-0.124134 0.118569,-0.330465 0,-0.452922 L 10.702548,7.7405501 c -0.123409,-0.1232955 -0.31699,-0.1232955 -0.435558,0 L 3.1423892,15.144155 c -0.1935814,0.206331 -0.057268,0.546023 0.217779,0.546023 h 6.273649 c 0.083885,0 0.1613178,-0.03355 0.2185856,-0.0931 z" />
    <path
       inkscape:connector-curvature="0"
       style="fill:#ffffff;stroke-width:0.82251;fill-opacity:1"
       id="path9"
       d="M 3.1496485,14.205599 12.89647,4.0651683 c 0.117762,-0.1232956 0.117762,-0.3245944 0,-0.4529225 L 9.7612583,0.35288163 c -0.117762,-0.12329556 -0.3161829,-0.12329556 -0.4355581,0 L 2.7068311,7.2263993 c -0.057268,0.059551 -0.090338,0.1400704 -0.090338,0.2264612 v 6.5204055 c 0.00323,0.291884 0.335541,0.436987 0.5331554,0.232333 z" />
    <path
       inkscape:connector-curvature="0"
       style="fill:#ffffff;stroke-width:0.82251;fill-opacity:1"
       id="path11"
       d="M 2.6172998,0.49882331 V 5.623557 c 0,0.2809797 0.3323146,0.4277601 0.525896,0.2264613 L 8.0714544,0.72528454 C 8.2698753,0.51979194 8.1287222,0.17422888 7.8536754,0.17422888 H 2.9238036 c -0.1718035,0 -0.3065038,0.14594168 -0.3065038,0.32459443 z" />
  </g>
</svg>
