<?xml version="1.0" encoding="UTF-8" standalone="no"?>
<svg
   xmlns:dc="http://purl.org/dc/elements/1.1/"
   xmlns:cc="http://creativecommons.org/ns#"
   xmlns:rdf="http://www.w3.org/1999/02/22-rdf-syntax-ns#"
   xmlns:svg="http://www.w3.org/2000/svg"
   xmlns="http://www.w3.org/2000/svg"
   xmlns:sodipodi="http://sodipodi.sourceforge.net/DTD/sodipodi-0.dtd"
   xmlns:inkscape="http://www.inkscape.org/namespaces/inkscape"
   width="16px"
   height="16px"
   viewBox="0 0 16 16"
   version="1.1"
   id="svg11"
   sodipodi:docname="grafana_mask_icon.svg"
   inkscape:version="0.92.1 r15371">
  <metadata
     id="metadata15">
    <rdf:RDF>
      <cc:Work
         rdf:about="">
        <dc:format>image/svg+xml</dc:format>
        <dc:type
           rdf:resource="http://purl.org/dc/dcmitype/StillImage" />
      </cc:Work>
    </rdf:RDF>
  </metadata>
  <sodipodi:namedview
     pagecolor="#ffffff"
     bordercolor="#666666"
     borderopacity="1"
     objecttolerance="10"
     gridtolerance="10"
     guidetolerance="10"
     inkscape:pageopacity="0"
     inkscape:pageshadow="2"
     inkscape:window-width="709"
     inkscape:window-height="480"
     id="namedview13"
     showgrid="false"
     showguides="false"
     inkscape:zoom="14.75"
     inkscape:cx="8"
     inkscape:cy="8"
     inkscape:window-x="2101"
     inkscape:window-y="124"
     inkscape:window-maximized="0"
     inkscape:current-layer="svg11" />
  <!-- Generator: Sketch 46 (44423) - http://www.bohemiancoding.com/sketch -->
  <title
     id="title2">grafana_mask_icon</title>
  <desc
     id="desc4">Created with Sketch.</desc>
  <defs
     id="defs6" />
  <g
     id="g4512">
    <path
       inkscape:connector-curvature="0"
       style="fill:#000000;fill-opacity:1;stroke-width:0.82251"
       id="path7"
       d="m 9.7168101,15.664874 3.9845489,-4.139208 c 0.118569,-0.124134 0.118569,-0.330465 0,-0.452922 L 10.566955,7.8083466 c -0.123409,-0.1232955 -0.31699,-0.1232955 -0.435558,0 L 3.0067965,15.211952 c -0.1935814,0.206331 -0.057268,0.546023 0.217779,0.546023 h 6.273649 c 0.083885,0 0.1613178,-0.03355 0.2185856,-0.0931 z" />
    <path
       inkscape:connector-curvature="0"
       style="fill:#000000;fill-opacity:1;stroke-width:0.82251"
       id="path9"
       d="M 3.0140558,14.273396 12.760877,4.1329648 c 0.117762,-0.1232956 0.117762,-0.3245944 0,-0.4529225 L 9.6256656,0.42067815 c -0.117762,-0.12329556 -0.3161829,-0.12329556 -0.4355581,0 L 2.5712384,7.2941958 c -0.057268,0.059551 -0.090338,0.1400704 -0.090338,0.2264612 v 6.520406 c 0.00323,0.291884 0.335541,0.436987 0.5331554,0.232333 z" />
    <path
       inkscape:connector-curvature="0"
       style="fill:#000000;fill-opacity:1;stroke-width:0.82251"
       id="path11"
       d="M 2.4817071,0.56661983 V 5.6913535 c 0,0.2809797 0.3323146,0.4277601 0.525896,0.2264613 L 7.9358617,0.79308106 C 8.1342826,0.58758846 7.9931295,0.2420254 7.7180827,0.2420254 H 2.7882109 c -0.1718035,0 -0.3065038,0.14594168 -0.3065038,0.32459443 z" />
  </g>
</svg>
