<?xml version="1.0" encoding="UTF-8" standalone="no"?>
<!-- Generator: Adobe Illustrator 16.0.0, SVG Export Plug-In . SVG Version: 6.00 Build 0)  -->

<svg
   xmlns:dc="http://purl.org/dc/elements/1.1/"
   xmlns:cc="http://creativecommons.org/ns#"
   xmlns:rdf="http://www.w3.org/1999/02/22-rdf-syntax-ns#"
   xmlns:svg="http://www.w3.org/2000/svg"
   xmlns="http://www.w3.org/2000/svg"
   xmlns:xlink="http://www.w3.org/1999/xlink"
   xmlns:sodipodi="http://sodipodi.sourceforge.net/DTD/sodipodi-0.dtd"
   xmlns:inkscape="http://www.inkscape.org/namespaces/inkscape"
   version="1.1"
   id="Layer_1"
   x="0px"
   y="0px"
   width="22"
   height="22"
   viewBox="1.958 18.234 22 21.999998"
   enable-background="new 1.958 18.234 37 18.599"
   xml:space="preserve"
   inkscape:version="0.47pre3 r22311"
   sodipodi:docname="BritishSteelLogoOnly.svg"><metadata
   id="metadata19"><rdf:RDF><cc:Work
       rdf:about=""><dc:format>image/svg+xml</dc:format><dc:type
         rdf:resource="http://purl.org/dc/dcmitype/StillImage" /></cc:Work></rdf:RDF></metadata><defs
   id="defs17"><linearGradient
   inkscape:collect="always"
   id="linearGradient5037"><stop
     style="stop-color:#000000;stop-opacity:1;"
     offset="0"
     id="stop5039" /><stop
     style="stop-color:#000000;stop-opacity:0;"
     offset="1"
     id="stop5041" /></linearGradient><inkscape:perspective
   sodipodi:type="inkscape:persp3d"
   inkscape:vp_x="0 : 9.2995005 : 1"
   inkscape:vp_y="0 : 1000 : 0"
   inkscape:vp_z="37 : 9.2995005 : 1"
   inkscape:persp3d-origin="18.5 : 6.199667 : 1"
   id="perspective21" />
	
	
<radialGradient
   inkscape:collect="always"
   xlink:href="#linearGradient5037"
   id="radialGradient5043"
   cx="11.66378"
   cy="12.444797"
   fx="11.66378"
   fy="12.444797"
   r="11.533305"
   gradientUnits="userSpaceOnUse" /></defs><sodipodi:namedview
   pagecolor="#ffffff"
   bordercolor="#666666"
   borderopacity="1"
   objecttolerance="10"
   gridtolerance="10"
   guidetolerance="10"
   inkscape:pageopacity="0"
   inkscape:pageshadow="2"
   inkscape:window-width="955"
   inkscape:window-height="717"
   id="namedview15"
   showgrid="false"
   inkscape:zoom="12.688854"
   inkscape:cx="11.171729"
   inkscape:cy="9.0646741"
   inkscape:window-x="0"
   inkscape:window-y="0"
   inkscape:window-maximized="0"
   inkscape:current-layer="Layer_1" />
<g
   id="g5"
   transform="translate(5.9106992,1.8248115)">
		<path
   style="fill:#f58423"
   id="path7"
   d="m 11.026,36.672 4.94,-4.935 c 0.147,-0.148 0.147,-0.394 0,-0.54 L 12.08,27.305 c -0.153,-0.147 -0.393,-0.147 -0.54,0 l -8.833,8.827 c -0.24,0.246 -0.071,0.651 0.27,0.651 h 7.778 c 0.104,0 0.2,-0.04 0.271,-0.111 z" />
		<path
   style="fill:#f58423"
   id="path9"
   d="M 2.716,35.013 14.8,22.923 c 0.146,-0.147 0.146,-0.387 0,-0.54 l -3.887,-3.886 c -0.146,-0.147 -0.392,-0.147 -0.54,0 l -8.206,8.195 c -0.071,0.071 -0.112,0.167 -0.112,0.27 v 7.774 c 0.004,0.348 0.416,0.521 0.661,0.277 z" />
		<path
   style="fill:#f58423"
   id="path11"
   d="m 2.056,18.671 v 6.11 c 0,0.335 0.412,0.51 0.652,0.27 l 6.11,-6.11 C 9.064,18.696 8.889,18.284 8.548,18.284 H 2.436 c -0.213,0 -0.38,0.174 -0.38,0.387 z" />
	</g>
</svg>